<svg xmlns="http://www.w3.org/2000/svg" width="512" height="195" fill="none" viewBox="0 0 512 195"><g clip-path="url(#a)"><path fill="#1a1a22" d="M0 0h512v195H0z"/><path fill="#fff" d="M334.717 104.931c-67.111 44.735-108.257 100.891-176.163-.982-67.905-101.874-68.55-220.724-1.438-265.458s176.565 1.586 244.471 103.46.242 118.246-66.87 162.98" opacity=".3" style="mix-blend-mode:soft-light"/><path fill="#fff" d="M354.451 134.537c-67.112 44.734-108.257 100.891-176.163-.983s-68.55-220.723-1.438-265.458c67.112-44.734 176.565 1.586 244.471 103.46s.242 118.246-66.87 162.981" opacity=".3" style="mix-blend-mode:soft-light"/><path fill="#fff" d="M374.185 164.141c-67.112 44.735-108.257 100.891-176.163-.982s-68.55-220.723-1.438-265.458c67.111-44.734 176.565 1.586 244.471 103.46s.241 118.246-66.87 162.98" opacity=".3" style="mix-blend-mode:soft-light"/><path fill="#fff" d="M393.919 193.747c-67.112 44.735-108.257 100.891-176.163-.982s-68.55-220.724-1.438-265.458 176.565 1.586 244.471 103.46.242 118.246-66.87 162.98" opacity=".3" style="mix-blend-mode:soft-light"/><path fill="#fff" d="M413.653 223.353c-67.111 44.734-108.257 100.891-176.163-.983-67.905-101.874-68.549-220.723-1.438-265.458 67.112-44.734 176.565 1.586 244.471 103.46s.242 118.246-66.87 162.981" opacity=".3" style="mix-blend-mode:soft-light"/><path fill="#fff" d="M433.387 252.957c-67.112 44.735-108.257 100.891-176.163-.982s-68.55-220.723-1.438-265.458c67.111-44.734 176.565 1.586 244.471 103.46 67.905 101.874.241 118.246-66.87 162.98" opacity=".3" style="mix-blend-mode:soft-light"/><path fill="#fff" d="M453.121 282.563c-67.112 44.734-108.257 100.891-176.163-.983s-68.55-220.723-1.438-265.458c67.111-44.734 176.565 1.586 244.471 103.46s.241 118.246-66.87 162.981" opacity=".3" style="mix-blend-mode:soft-light"/><path stroke="#fff" stroke-linecap="round" stroke-linejoin="round" stroke-width="3.917" d="m48 54-6-6m6 6a44.7 44.7 0 0 0 8-4m-8 4v10s6.06-1.1 8-4c2.16-3.24 0-10 0-10m-14-2a44 44 0 0 1 4-7.9A25.76 25.76 0 0 1 68 28c0 5.44-1.56 15-12 22m-14-2H32s1.1-6.06 4-8c3.24-2.16 10 0 10 0M33 57c-3 2.52-4 10-4 10s7.48-1 10-4c1.42-1.68 1.4-4.26-.18-5.82A4.36 4.36 0 0 0 33 57"/></g><defs><clipPath id="a"><path fill="#fff" d="M0 0h512v195H0z"/></clipPath></defs></svg>