<svg xmlns="http://www.w3.org/2000/svg" width="512" height="195" fill="none" viewBox="0 0 512 195"><g clip-path="url(#a)"><path fill="#1a1a22" d="M0 0h512v195H0z"/><path fill="#fff" d="M334.717 104.931c-67.111 44.735-108.257 100.891-176.163-.982-67.905-101.874-68.55-220.724-1.438-265.458s176.565 1.586 244.471 103.46.242 118.246-66.87 162.98" opacity=".3" style="mix-blend-mode:soft-light"/><path fill="#fff" d="M354.451 134.537c-67.111 44.734-108.257 100.891-176.163-.983s-68.549-220.723-1.438-265.458c67.112-44.734 176.565 1.586 244.471 103.46s.242 118.246-66.87 162.981" opacity=".3" style="mix-blend-mode:soft-light"/><path fill="#fff" d="M374.185 164.141c-67.112 44.735-108.257 100.891-176.163-.982s-68.55-220.723-1.438-265.458c67.111-44.734 176.565 1.586 244.471 103.46s.241 118.246-66.87 162.98" opacity=".3" style="mix-blend-mode:soft-light"/><path fill="#fff" d="M393.919 193.747c-67.111 44.735-108.257 100.891-176.163-.982s-68.549-220.724-1.438-265.458 176.565 1.586 244.471 103.46.242 118.246-66.87 162.98" opacity=".3" style="mix-blend-mode:soft-light"/><path fill="#fff" d="M413.653 223.353c-67.111 44.734-108.257 100.891-176.162-.983-67.906-101.874-68.55-220.723-1.439-265.458 67.112-44.734 176.565 1.586 244.471 103.46s.242 118.246-66.87 162.981" opacity=".3" style="mix-blend-mode:soft-light"/><path fill="#fff" d="M433.387 252.957c-67.112 44.735-108.257 100.891-176.163-.982s-68.55-220.723-1.438-265.458c67.111-44.734 176.565 1.586 244.471 103.46s.241 118.246-66.87 162.98" opacity=".3" style="mix-blend-mode:soft-light"/><path fill="#fff" d="M453.121 282.563c-67.112 44.734-108.257 100.891-176.163-.983s-68.55-220.723-1.438-265.458c67.111-44.734 176.565 1.586 244.471 103.46s.241 118.246-66.87 162.981" opacity=".3" style="mix-blend-mode:soft-light"/><path fill="#fff" d="M48 28c11.044 0 20 7.955 20 17.778 0 6.133-4.978 11.11-11.111 11.11h-3.934a3.33 3.33 0 0 0-3.333 3.334c0 .844.334 1.622.845 2.2.533.6.866 1.378.866 2.245C51.333 66.51 49.8 68 48 68c-11.045 0-20-8.956-20-20s8.955-20 20-20m-2.378 32.222a7.33 7.33 0 0 1 7.334-7.333h3.933a7.115 7.115 0 0 0 7.11-7.111C64 38.278 56.936 32 48 32c-8.834 0-16 7.165-16 16 0 8.38 6.446 15.257 14.649 15.944a7.3 7.3 0 0 1-1.026-3.722M39 48a3 3 0 1 1 0-6 3 3 0 0 1 0 6m18 0a3 3 0 1 1 0-6 3 3 0 0 1 0 6m-9-6a3 3 0 1 1 0-6 3 3 0 0 1 0 6"/></g><defs><clipPath id="a"><path fill="#fff" d="M0 0h512v195H0z"/></clipPath></defs></svg>