<svg xmlns="http://www.w3.org/2000/svg" width="192" height="192" style="shape-rendering:geometricPrecision;text-rendering:geometricPrecision;image-rendering:optimizeQuality;fill-rule:evenodd;clip-rule:evenodd"><path fill="#f8fcfc" d="M82.5-.5h26q34.504 5.25 58 31-2.021-.792-4-.5 6.425 5.168 10 12.5a20.5 20.5 0 0 0-3 5.5q-3.318 1.185-6-.5 2.682.428 5-1a4.45 4.45 0 0 0-2-1.5q5.998-.74 2.5-5.5-6.502-9.558-17.5-11.5-17.4 11.523-20 32.5-1.479 6.705-1 14a47 47 0 0 1-1.5 11q-2.598 7.675-10.5 5.5A99 99 0 0 0 90 78.5q-10.937 2.691-18.5 11-6.685 5.53-15 3-11.722-9.441-8-24 1.487.257 2-1l10 3q10.065.32 20-1 7.409 1.722 10.5-5a109.4 109.4 0 0 0-1-25q-2.505-5.79-8.5-7.5a138 138 0 0 0-16-3.5q-8.23 3.222-14 10a62.5 62.5 0 0 1 11.5-6 941 941 0 0 1 5.5 3.5q5.567.262 11 1.5-5.095 3.039-10 6-6.883 1.67-11 7-6.297-3.696-13.5-6-1.148.105-1.5 1-3.843 4.2-3.5 10 .417-1.374 1.5-2-.03 6.95 3.5 13a64.3 64.3 0 0 1 0 16 17.8 17.8 0 0 1-4.5 5.5 3049 3049 0 0 1-12 6q-5.038 3.052-1 7 5.097 2.035 9 5.5-1.874 2.454-5 3.5-14.492 2.12-24.5 12.5-1.27 5.359 1.5 10h-2q-4.927-11.733-7-24v-26q14-69 83-83" style="opacity:.985"/><path fill="#86827e" d="M51.5 38.5q-1.592 3.385-5 3.5 1.935-2.703 5-3.5" style="opacity:1"/><path fill="#2d2a2b" d="M80.5 69.5q1.05-6.749 7.5-5 4.55-6.876.5-14 1.477-2.397.5-5l-1 1a9.5 9.5 0 0 0-1.5-2.5q-3.111.34-6-.5-1.96 2.118-2.5 5l-1-1-2 4q-.94-3.737-2.5 0l-3-3q3.82-2.931 0-5 4.905-2.961 10-6a62.7 62.7 0 0 0-11-1.5 941 941 0 0 0-5.5-3.5 62.5 62.5 0 0 0-11.5 6q5.77-6.778 14-10 8.104 1.275 16 3.5 5.995 1.71 8.5 7.5a109.4 109.4 0 0 1 1 25q-3.091 6.722-10.5 5" style="opacity:1"/><path fill="#a4a3a2" d="M85.5 36.5q2.748.96 1 3-1.329-1.238-1-3" style="opacity:1"/><path fill="#242221" d="M69.5 43.5q3.82 2.069 0 5l3 3q1.56-3.737 2.5 0l2-4 1 1q.54-2.882 2.5-5 2.889.84 6 .5a9.5 9.5 0 0 1 1.5 2.5l1-1q.977 2.603-.5 5 4.05 7.124-.5 14-6.45-1.749-7.5 5-9.935 1.32-20 1a2.43 2.43 0 0 0-.5-2 60 60 0 0 0-5.5-4q2.648-3.934 2-9 2.037 1.689 4 0-4.04-1.548-2-5 4.117-5.33 11-7" style="opacity:1"/><path fill="#f8fdfd" d="M166.5 30.5q20.547 22.095 25 52v26q-13.817 68.317-82 83h-28q-52.898-9.896-75-59h2q2.031 3.294 6 4.5 9.974-.08 20-.5 7.695 6.469 11.5 16 6.776 5.613 15.5 3.5a151 151 0 0 1 16-5.5 124 124 0 0 1 19-1q7.078.193 13 4 5.21 3.206 7 9a41 41 0 0 0 .5 9q13.608 5.283 5-7a18.5 18.5 0 0 1-.5-6 5.73 5.73 0 0 0 1-3q11.455-8.408 26-9.5 2.35-.913 4-2.5 1.452-3.161 1-7a219 219 0 0 1 11.5-14q7.629-13.886-6-21-2.5-8.5-11-11a103 103 0 0 1-2-29q1.87-9.74 8.5-17a24 24 0 0 0 9 3q2.682 1.685 6 .5a20.5 20.5 0 0 1 3-5.5q-3.575-7.332-10-12.5 1.979-.292 4 .5" style="opacity:.986"/><path fill="#5f5a5a" d="M43.5 45.5a20.7 20.7 0 0 0 1 5q-3 0-3 3-1.083.626-1.5 2-.343-5.8 3.5-10" style="opacity:1"/><path fill="#dfdddc" d="M44.5 50.5q3.41.685 4 4-3.124-3.157-7-1 0-3 3-3" style="opacity:1"/><path fill="#d5d4d4" d="M56.5 55.5q.648 5.066-2 9-.04-8.504-6-15 .752-1.532 2-.5a54 54 0 0 1 6 6.5" style="opacity:1"/><path fill="#323034" d="M58.5 50.5q-2.04 3.452 2 5-1.963 1.689-4 0a54 54 0 0 0-6-6.5q-1.248-1.032-2 .5 5.96 6.496 6 15a60 60 0 0 1 5.5 4q.696.891.5 2l-10-3q1.488-4.918.5-10-.565-2.163-2.5-3-.59-3.315-4-4a20.7 20.7 0 0 1-1-5q.352-.895 1.5-1 7.203 2.304 13.5 6" style="opacity:1"/><path fill="#bdbbb9" d="M48.5 54.5q1.935.837 2.5 3 .988 5.082-.5 10-.513 1.257-2 1 1.893-7.022 0-14" style="opacity:1"/><path fill="#6d6864" d="M131.5 60.5q-.816 6.26 2 11.5a10.5 10.5 0 0 1-3 2.5q-.479-7.295 1-14" style="opacity:1"/><path fill="#252322" d="M163.5 47.5a24 24 0 0 1-9-3q-6.63 7.26-8.5 17a103 103 0 0 0 2 29q8.5 2.5 11 11 13.629 7.114 6 21a219 219 0 0 0-11.5 14q-1.401 1.602-1 4-1.345-1.647-2.5 0l-1-12q-1.558 1.116-1.5 3v9q-15.716.56-27 11l-2 1q-3.647-1.862 0-3.5-1.392-.582-2-2a11.5 11.5 0 0 1 4-4q-.883-5.019 2 0 4.423 1.27 7-2.5-4.368-7.829 1.5-2 .426-3.578 3-2 1-1 0-2-1.512-.722-3.5-.5-1.502-2.507-3.5-3.5l-1 1q-.868-5.829-2.5 0a12.4 12.4 0 0 1-4 2.5q5.162 1.254.5 2.5-3.282.219-4-3a9.5 9.5 0 0 1-2.5 1.5q1.816 1.34 0 2.5-1.954-1.827-3 1-3.868-2.082 0-4.5a4.93 4.93 0 0 0-3-.5q-.702 7.782-3 0 2.087.587 3-2.5-1.392-.582-2-2 1.61-2.124 0-4a2.43 2.43 0 0 1 2-.5q.996 1.722.5 4a8.9 8.9 0 0 0 3-4 34.3 34.3 0 0 0 1.5 8q.708-2.916 4-5.5-1.17-1.61.5-3.5 2.894 3.275 5.5-1a26 26 0 0 0-5-3 66 66 0 0 1 .5-7q-2.792 7.089-6.5 1-1.011-2.287-3-4a3.65 3.65 0 0 1 1-1.5q-1.743-1.24-3.5-2.5-3.405-1.162-6.5-1l4-2q-1.672-1.647 0-3.5-3.178-2.329 0-5.5 2.093 1.972 3-1-2-3-5-5l-2 2q-3.207-2.3-2-5.5-7.435-2.792-15 0l1 1a25.5 25.5 0 0 1-4 4.5q-2.225-3.668-3.5 1l-2-2q-1.005 1.128-2.5 1 7.563-8.309 18.5-11A99 99 0 0 1 118.5 91q7.902 2.175 10.5-5.5a47 47 0 0 0 1.5-11 10.5 10.5 0 0 0 3-2.5q-2.816-5.24-2-11.5 2.6-20.977 20-32.5 10.998 1.942 17.5 11.5 3.498 4.76-2.5 5.5a4.45 4.45 0 0 1 2 1.5q-2.318 1.428-5 1" style="opacity:1"/><path fill="#e9e8e8" d="M146.5 43.5a8.44 8.44 0 0 1 4 .5q-8.3 11.874-9.5 26.5-2.885-14.85 5.5-27" style="opacity:1"/><path fill="#acabaa" d="M158.5 35.5h3q-1.119 5.715-3 0" style="opacity:1"/><path fill="#22201f" d="M111.5 113.5v5q3.663-.571 2 2-3.744 2.846-6.5 0l-1.5 1q1.668 1.148 2 3a2.43 2.43 0 0 0-2 .5q1.61 1.876 0 4 .608 1.418 2 2-.913 3.087-3 2.5 2.298 7.782 3 0a4.93 4.93 0 0 1 3 .5q-3.868 2.418 0 4.5 1.046-2.827 3-1 1.816-1.16 0-2.5a9.5 9.5 0 0 0 2.5-1.5q.718 3.219 4 3 4.662-1.246-.5-2.5a12.4 12.4 0 0 0 4-2.5q1.632-5.829 2.5 0l1-1q1.998.993 3.5 3.5 1.988-.222 3.5.5 1 1 0 2-2.574-1.578-3 2-5.868-5.829-1.5 2-2.577 3.77-7 2.5-2.883-5.019-2 0a11.5 11.5 0 0 0-4 4q.608 1.418 2 2-3.647 1.638 0 3.5-1.338 3.47 2.5 1 1.545.504 1.5 2a5.73 5.73 0 0 1-1 3 42 42 0 0 0-2 6q1.4 2.227-1 4l-2-6q-1.79-5.794-7-9 2.34-2.444-1-3.5a23.7 23.7 0 0 1-6-2.5q-2.397 1.477-5 .5 2.487-1.088 1.5-3.5a4.45 4.45 0 0 1-1.5 2l-4-2q-1.124 2.268-3.5 3a30.7 30.7 0 0 1-6.5-4q-2.633 3.784-5.5 0-1.148.105-1.5 1a73.3 73.3 0 0 1-13 4q-1.437-.679-2.5-2l-3 2q-3.268-1.344-5.5-4-1.343 1.509-2 0a14.7 14.7 0 0 1 5-1.5q-3.465-2.456-4.5-6.5a60 60 0 0 0-6 8q-.442-4.398-4.5-6 1.773-3.218 4.5 0-.475-3.41-4.5-3 .329-1.763-1-3-.757 4.263-5 4-10.026.42-20 .5-3.969-1.206-6-4.5-2.77-4.641-1.5-10 10.008-10.38 24.5-12.5 3.126-1.046 5-3.5 3.95-1.966 0-4.5 1.816-1.34 0-2.5a4.45 4.45 0 0 0-1.5 2q-.75-1.75-2.5-2.5a6.54 6.54 0 0 0 3-3q2.452-.81 4 1.5a4.45 4.45 0 0 0 1.5-2 9.5 9.5 0 0 0 2.5 1.5q-2 2.455-4 2.5-.277 2.979 2 6 1.816-1.16 0-2.5a9.5 9.5 0 0 0 2.5-1.5q.552 2.115 2.5 3 2.17-4.113 6.5-6a11.3 11.3 0 0 1 4 2q.407-3.46-3.5-3.5-1.87-2.241 0-4.5.254 1.346 1 3a44 44 0 0 1 2-3q8.315 2.53 15-3 1.495.128 2.5-1l2 2q1.275-4.668 3.5-1a25.5 25.5 0 0 0 4-4.5l-1-1q7.565-2.792 15 0-1.207 3.2 2 5.5l2-2q3 2 5 5-.907 2.972-3 1-3.178 3.171 0 5.5-1.672 1.853 0 3.5l-4 2q3.095-.162 6.5 1 1.757 1.26 3.5 2.5a3.65 3.65 0 0 0-1 1.5q1.989 1.713 3 4" style="opacity:1"/><path fill="#292626" d="M48.5 54.5q1.893 6.978 0 14-3.722 14.559 8 24a44 44 0 0 0-2 3q-.746-1.654-1-3-1.87 2.259 0 4.5 3.907.04 3.5 3.5a11.3 11.3 0 0 0-4-2q-4.33 1.887-6.5 6-1.948-.885-2.5-3a9.5 9.5 0 0 1-2.5 1.5q1.816 1.34 0 2.5-2.277-3.021-2-6 2-.045 4-2.5a9.5 9.5 0 0 1-2.5-1.5 4.45 4.45 0 0 1-1.5 2q-1.548-2.31-4-1.5a6.54 6.54 0 0 1-3 3q1.75.75 2.5 2.5a4.45 4.45 0 0 1 1.5-2q1.816 1.16 0 2.5 3.95 2.534 0 4.5-3.903-3.465-9-5.5-4.038-3.948 1-7 6.052-3.01 12-6a17.8 17.8 0 0 0 4.5-5.5 64.3 64.3 0 0 0 0-16q-3.53-6.05-3.5-13 3.876-2.157 7 1" style="opacity:1"/><path fill="#3c3936" d="M107.5 124.5q-.332-1.852-2-3l1.5-1q2.756 2.846 6.5 0 1.663-2.571-2-2v-5q3.708 6.089 6.5-1a66 66 0 0 0-.5 7 26 26 0 0 1 5 3q-2.606 4.275-5.5 1-1.67 1.89-.5 3.5-3.292 2.584-4 5.5a34.3 34.3 0 0 1-1.5-8 8.9 8.9 0 0 1-3 4q.496-2.278-.5-4" style="opacity:1"/><path fill="#ccc8c3" d="M11.5 128.5q4.657 3.801 11 3.5-7.704 4.243-11-3.5" style="opacity:1"/><path fill="#383434" d="M152.5 140.5q-2 1.5 0 3-1.65 1.587-4 2.5-14.545 1.092-26 9.5.045-1.496-1.5-2-3.837 2.47-2.5-1l2-1q12.585-7.08 27-9.5 1.98-5.401 0-10.5-.058-1.884 1.5-3l1 12q1.155-1.647 2.5 0" style="opacity:1"/><path fill="#7b7877" d="M153.5 136.5q.452 3.839-1 7-2-1.5 0-3-.401-2.398 1-4" style="opacity:1"/><path fill="#cac7c4" d="M147.5 131.5q1.98 5.099 0 10.5-14.415 2.42-27 9.5 11.284-10.44 27-11z" style="opacity:1"/><path fill="#322f2e" d="M63.5 148.5q-5.541 2.868-12 1.5a18.8 18.8 0 0 1-4.5-5.5q1.156 7.886 9.5 8a78.1 78.1 0 0 0 22-7.5 2.43 2.43 0 0 0-2-.5q.352-.895 1.5-1 2.867 3.784 5.5 0a30.7 30.7 0 0 0 6.5 4q2.376-.732 3.5-3l4 2a4.45 4.45 0 0 0 1.5-2q.987 2.412-1.5 3.5 2.603.977 5-.5a23.7 23.7 0 0 0 6 2.5q3.34 1.056 1 3.5-5.922-3.807-13-4-3.716-.996-8-1-5.953-.309-11 2a151 151 0 0 0-16 5.5q-8.724 2.113-15.5-3.5-3.805-9.531-11.5-16 4.244.263 5-4 1.329 1.237 1 3 4.025-.41 4.5 3-2.727-3.218-4.5 0 4.058 1.602 4.5 6a60 60 0 0 1 6-8q1.035 4.044 4.5 6.5a14.7 14.7 0 0 0-5 1.5q.657 1.509 2 0 2.232 2.656 5.5 4l3-2q1.063 1.321 2.5 2" style="opacity:1"/><path fill="#a9a7a3" d="M96.5 149.5a124 124 0 0 0-19 1q5.047-2.309 11-2 4.284.004 8 1" style="opacity:1"/><path fill="#c6c3c0" d="M63.5 148.5a73.3 73.3 0 0 0 13-4 2.43 2.43 0 0 1 2 .5 78.1 78.1 0 0 1-22 7.5q-8.344-.114-9.5-8a18.8 18.8 0 0 0 4.5 5.5q6.459 1.368 12-1.5" style="opacity:1"/><path fill="#464445" d="M121.5 158.5a18.5 18.5 0 0 0 .5 6q8.608 12.283-5 7a41 41 0 0 1-.5-9l2 6q2.4-1.773 1-4a42 42 0 0 1 2-6" style="opacity:1"/><path fill="#bdbfc0" d="M118.5 168.5q1.55 1.78 4 2.5-4.213 3.084-4-2.5" style="opacity:1"/></svg>