<svg xmlns="http://www.w3.org/2000/svg" width="192" height="192" style="shape-rendering:geometricPrecision;text-rendering:geometricPrecision;image-rendering:optimizeQuality;fill-rule:evenodd;clip-rule:evenodd"><path fill="#1a1a1a" d="M82.5-.5h26q34.504 5.25 58 31-2.021-.792-4-.5 6.425 5.168 10 12.5a20.5 20.5 0 0 0-3 5.5q-3.318 1.185-6-.5 2.682.428 5-1a4.45 4.45 0 0 0-2-1.5q5.998-.74 2.5-5.5-6.502-9.558-17.5-11.5-17.4 11.523-20 32.5-1.479 6.705-1 14a47 47 0 0 1-1.5 11q-2.598 7.675-10.5 5.5A99 99 0 0 0 90 78.5q-10.937 2.691-18.5 11-6.685 5.53-15 3-11.722-9.441-8-24 1.487.257 2-1l10 3q10.065.32 20-1 7.409 1.722 10.5-5a109.4 109.4 0 0 0-1-25q-2.505-5.79-8.5-7.5a138 138 0 0 0-16-3.5q-8.23 3.222-14 10a62.5 62.5 0 0 1 11.5-6 941 941 0 0 1 5.5 3.5q5.567.262 11 1.5-5.095 3.039-10 6-6.883 1.67-11 7-6.297-3.696-13.5-6-1.148.105-1.5 1-3.843 4.2-3.5 10 .417-1.374 1.5-2-.03 6.95 3.5 13a64.3 64.3 0 0 1 0 16 17.8 17.8 0 0 1-4.5 5.5 3049 3049 0 0 1-12 6q-5.038 3.052-1 7 5.097 2.035 9 5.5-1.874 2.454-5 3.5-14.492 2.12-24.5 12.5-1.27 5.359 1.5 10h-2q-4.927-11.733-7-24v-26q14-69 83-83" style="opacity:.985"/><path fill="#d4d1ce" d="M51.5 38.5q-1.592 3.385-5 3.5 1.935-2.703 5-3.5" style="opacity:1"/><path fill="#e8e8e8" d="M80.5 69.5q1.05-6.749 7.5-5 4.55-6.876.5-14 1.477-2.397.5-5l-1 1a9.5 9.5 0 0 0-1.5-2.5q-3.111.34-6-.5-1.96 2.118-2.5 5l-1-1-2 4q-.94-3.737-2.5 0l-3-3q3.82-2.931 0-5 4.905-2.961 10-6a62.7 62.7 0 0 0-11-1.5 941 941 0 0 0-5.5-3.5 62.5 62.5 0 0 0-11.5 6q5.77-6.778 14-10 8.104 1.275 16 3.5 5.995 1.71 8.5 7.5a109.4 109.4 0 0 1 1 25q-3.091 6.722-10.5 5" style="opacity:1"/><path fill="#b8b6b3" d="M85.5 36.5q2.748.96 1 3-1.329-1.238-1-3" style="opacity:1"/><path fill="#f0f0f0" d="M69.5 43.5q3.82 2.069 0 5l3 3q1.56-3.737 2.5 0l2-4 1 1q.54-2.882 2.5-5 2.889.84 6 .5a9.5 9.5 0 0 1 1.5 2.5l1-1q.977 2.603-.5 5 4.05 7.124-.5 14-6.45-1.749-7.5 5-9.935 1.32-20 1a2.43 2.43 0 0 0-.5-2 60 60 0 0 0-5.5-4q2.648-3.934 2-9 2.037 1.689 4 0-4.04-1.548-2-5 4.117-5.33 11-7" style="opacity:1"/><path fill="#141414" d="M166.5 30.5q20.547 22.095 25 52v26q-13.817 68.317-82 83h-28q-52.898-9.896-75-59h2q2.031 3.294 6 4.5 9.974-.08 20-.5 7.695 6.469 11.5 16 6.776 5.613 15.5 3.5a151 151 0 0 1 16-5.5 124 124 0 0 1 19-1q7.078.193 13 4 5.21 3.206 7 9a41 41 0 0 0 .5 9q13.608 5.283 5-7a18.5 18.5 0 0 1-.5-6 5.73 5.73 0 0 0 1-3q11.455-8.408 26-9.5 2.35-.913 4-2.5 1.452-3.161 1-7a219 219 0 0 1 11.5-14q7.629-13.886-6-21-2.5-8.5-11-11a103 103 0 0 1-2-29q1.87-9.74 8.5-17a24 24 0 0 0 9 3q2.682 1.685 6 .5a20.5 20.5 0 0 1 3-5.5q-3.575-7.332-10-12.5 1.979-.292 4 .5" style="opacity:.986"/></svg>